<svg width="51" height="51" viewBox="0 0 51 51" fill="none" xmlns="http://www.w3.org/2000/svg">
<path d="M44.4605 23.823C45.4468 25.1156 45.4451 26.8593 44.4564 28.148C41.3423 32.2055 33.872 40.559 25.1595 40.5509C16.447 40.5429 8.99228 32.1755 5.88563 28.1122C5.40576 27.4933 5.14565 26.7322 5.14638 25.949C5.14711 25.1659 5.40862 24.4053 5.88965 23.7872C9.00383 19.7297 16.4741 11.3762 25.1866 11.3843C33.8991 11.3924 41.3538 19.7597 44.4605 23.823V23.823Z" stroke="black" stroke-linecap="round" stroke-linejoin="round"/>
<path d="M25.1673 32.2176C28.619 32.2208 31.4199 29.4252 31.4231 25.9734C31.4263 22.5216 28.6306 19.7208 25.1789 19.7176C21.7271 19.7144 18.9263 22.51 18.9231 25.9618C18.9199 29.4136 21.7155 32.2144 25.1673 32.2176Z" stroke="black" stroke-linecap="round" stroke-linejoin="round"/>
</svg>
