<svg width="51" height="51" viewBox="0 0 51 51" fill="none" xmlns="http://www.w3.org/2000/svg">
<path d="M45.2307 18.2239L32.8349 16.4106L27.3033 5.1701C27.1522 4.86234 26.9034 4.61309 26.596 4.46144C25.8248 4.07986 24.887 4.39637 24.5006 5.1675L18.9482 16.3977L6.54903 18.188C6.20719 18.2365 5.89454 18.3973 5.65506 18.6412C5.36553 18.9383 5.20577 19.3381 5.21088 19.7528C5.21599 20.1676 5.38555 20.5634 5.6823 20.8532L14.6439 29.6066L12.5133 41.9533C12.4634 42.2405 12.4949 42.5359 12.6043 42.8062C12.7137 43.0764 12.8966 43.3105 13.1323 43.482C13.3681 43.6536 13.6471 43.7556 13.9379 43.7766C14.2287 43.7976 14.5195 43.7368 14.7774 43.6009L25.8717 37.7811L36.9551 43.6215C37.2577 43.7829 37.6092 43.8369 37.9462 43.7786C38.7959 43.6329 39.368 42.8278 39.2223 41.9781L37.1146 29.6275L46.0924 20.8907C46.3368 20.6516 46.4982 20.3393 46.5474 19.9975C46.68 19.1432 46.085 18.3516 45.2307 18.2239V18.2239Z" fill="black"/>
</svg>
