<svg width="51" height="51" viewBox="0 0 51 51" fill="none" xmlns="http://www.w3.org/2000/svg">
<path d="M46.3326 25.6455L26.2389 5.52917C26.0943 5.38393 25.9224 5.26866 25.7331 5.18994C25.5438 5.11122 25.3409 5.07061 25.1359 5.07042C24.9309 5.07023 24.7278 5.11047 24.5384 5.18883C24.349 5.2672 24.1769 5.38215 24.0319 5.52712L3.90097 25.6061C3.31449 26.1915 2.98172 26.9871 2.98095 27.8172C2.97935 29.5408 4.37942 30.9435 6.10305 30.9451L8.22219 30.947L8.20888 45.2878C8.20808 46.1521 8.90568 46.851 9.76993 46.8518L21.9721 46.8631L21.9822 35.9256L27.451 35.9307L27.4408 46.8682L40.4242 46.8802C41.2885 46.881 41.9874 46.1834 41.9882 45.3192L42.0015 30.9784L44.1206 30.9803C44.9507 30.9811 45.7469 30.6547 46.3334 30.0644C47.5503 28.8448 47.5522 26.8673 46.3326 25.6455V25.6455Z" fill="black"/>
</svg>
