<svg width="51" height="51" viewBox="0 0 51 51" fill="none" xmlns="http://www.w3.org/2000/svg">
<path d="M15.2971 42.3757C17.0523 42.3774 18.4765 40.9558 18.4782 39.2006C18.4798 37.4453 17.0582 36.0211 15.303 36.0195C13.5478 36.0179 12.1235 37.4394 12.1219 39.1947C12.1203 40.9499 13.5419 42.3741 15.2971 42.3757Z" stroke="black" stroke-width="1.04167" stroke-linecap="round" stroke-linejoin="round"/>
<path d="M33.9419 42.393C35.6971 42.3947 37.1213 40.9731 37.1229 39.2179C37.1246 37.4626 35.703 36.0384 33.9478 36.0368C32.1925 36.0352 30.7683 37.4567 30.7667 39.212C30.7651 40.9672 32.1866 42.3914 33.9419 42.393Z" stroke="black" stroke-width="1.04167" stroke-linecap="round" stroke-linejoin="round"/>
<path d="M5.58006 11.3282L10.453 11.3327L15.303 36.0195L33.9478 36.0368" stroke="black" stroke-width="1.04167" stroke-linecap="round" stroke-linejoin="round"/>
<path d="M39.9435 23.7538C43.3953 23.757 46.1961 20.9614 46.1993 17.5096C46.2025 14.0578 43.4069 11.257 39.9551 11.2538C36.5034 11.2506 33.7025 14.0462 33.6993 17.498C33.6961 20.9498 36.4918 23.7506 39.9435 23.7538Z" stroke="black" stroke-width="1.04167" stroke-linecap="round" stroke-linejoin="round"/>
<path d="M43.7701 9.77504L42.6629 11.8771M34.7662 9.39585L38.9521 7.81015M39.9493 17.5038L38.6289 13.689M11.3819 16.0617L30.204 17.0187M14.4477 31.6676L36.2289 31.6878C39.6185 31.691 39.9415 27.0913 39.9415 27.0913M12.5037 21.77L31.2584 22.3166M13.4441 26.5604L37.4801 27.0421M32.6799 31.6845L33.6926 24.8074M26.6414 31.6789L26.4958 16.8298M19.2409 16.4617L20.7789 31.6735" stroke="black" stroke-width="1.04167" stroke-linecap="round" stroke-linejoin="round"/>
</svg>
