<svg width="51" height="51" viewBox="0 0 51 51" fill="none" xmlns="http://www.w3.org/2000/svg">
<g clip-path="url(#clip0_3_472)">
<path d="M35.139 0.126185C35.0329 0.00733615 31.2046 0.169409 27.87 3.78194C24.5354 7.39135 25.044 11.5356 25.1189 11.6419C25.1938 11.7482 29.8687 11.9182 32.8569 7.71782C35.8452 3.51747 35.2451 0.248158 35.139 0.126185V0.126185ZM45.4612 36.8014C45.3115 36.5013 38.1992 32.9384 38.868 26.1015C39.5369 19.2615 44.1105 17.3908 44.1825 17.1877C44.2546 16.9847 42.3192 14.7172 40.2671 13.5684C38.7604 12.7585 37.0925 12.2937 35.384 12.2077C35.0465 12.198 33.8749 11.9094 31.4649 12.5665C29.877 12.9994 26.2976 14.4024 25.3132 14.4577C24.3256 14.513 21.3897 12.8228 18.2307 12.373C16.2092 11.9805 14.0647 12.7785 12.5298 13.3927C10.998 14.0038 8.08386 15.7448 6.04207 20.3773C4.00027 25.0067 5.05909 32.3452 5.81947 34.6271C6.57985 36.906 7.76701 40.6414 9.78948 43.3683C11.5866 46.445 13.9721 48.5816 14.9684 49.3075C15.9646 50.0334 18.7766 50.5173 20.7275 49.5222C22.2972 48.5612 25.1289 48.0107 26.2476 48.0523C27.3632 48.094 29.5628 48.5367 31.8148 49.7419C33.5986 50.3592 35.2864 50.1045 36.9776 49.4185C38.6689 48.7295 41.1182 46.113 43.9794 40.8063C45.066 38.3385 45.561 37.0046 45.4612 36.8014V36.8014Z" fill="black"/>
<path d="M35.139 0.126185C35.0329 0.00733615 31.2046 0.169409 27.87 3.78194C24.5354 7.39135 25.044 11.5356 25.1189 11.6419C25.1938 11.7482 29.8687 11.9182 32.8569 7.71782C35.8452 3.51747 35.2451 0.248158 35.139 0.126185V0.126185ZM45.4612 36.8014C45.3115 36.5013 38.1992 32.9384 38.868 26.1015C39.5369 19.2615 44.1105 17.3908 44.1825 17.1877C44.2546 16.9847 42.3192 14.7172 40.2671 13.5684C38.7604 12.7585 37.0925 12.2937 35.384 12.2077C35.0465 12.198 33.8749 11.9094 31.4649 12.5665C29.877 12.9994 26.2976 14.4024 25.3132 14.4577C24.3256 14.513 21.3897 12.8228 18.2307 12.373C16.2092 11.9805 14.0647 12.7785 12.5298 13.3927C10.998 14.0038 8.08386 15.7448 6.04207 20.3773C4.00027 25.0067 5.05909 32.3452 5.81947 34.6271C6.57985 36.906 7.76701 40.6414 9.78948 43.3683C11.5866 46.445 13.9721 48.5816 14.9684 49.3075C15.9646 50.0334 18.7766 50.5173 20.7275 49.5222C22.2972 48.5612 25.1289 48.0107 26.2476 48.0523C27.3632 48.094 29.5628 48.5367 31.8148 49.7419C33.5986 50.3592 35.2864 50.1045 36.9776 49.4185C38.6689 48.7295 41.1182 46.113 43.9794 40.8063C45.066 38.3385 45.561 37.0046 45.4612 36.8014V36.8014Z" fill="black"/>
</g>
<defs>
<clipPath id="clip0_3_472">
<rect width="50" height="50" fill="white" transform="translate(0.195282 0.0687561) rotate(0.0531621)"/>
</clipPath>
</defs>
</svg>
