<svg width="51" height="51" viewBox="0 0 51 51" fill="none" xmlns="http://www.w3.org/2000/svg">
<g clip-path="url(#clip0_3_394)">
<path d="M41.9106 36.0397C47.2306 31.3009 50.1731 25.9286 50.1731 25.9286C50.1731 25.9286 40.814 8.73244 25.1891 8.71794C22.1878 8.72549 19.2199 9.34811 16.4686 10.5474L18.8726 12.959C20.8965 12.2238 23.0329 11.8462 25.1862 11.8429C31.8111 11.8491 37.3046 15.5042 41.329 19.536C43.2658 21.4869 45.0017 23.6274 46.5106 25.9252C46.3291 26.1969 46.1288 26.4968 45.9004 26.8247C44.8521 28.3237 43.3034 30.3223 41.3172 32.3048C40.8011 32.8199 40.2631 33.3288 39.7001 33.822L41.9106 36.0397Z" fill="black"/>
<path d="M35.4728 29.59C36.172 27.6401 36.3031 25.5319 35.8509 23.5104C35.3986 21.489 34.3817 19.6375 32.9184 18.1714C31.455 16.7054 29.6054 15.685 27.5848 15.229C25.5642 14.773 23.4557 14.9002 21.5045 15.5958L24.074 18.17C25.2752 17.9993 26.4996 18.1106 27.6502 18.4951C28.8009 18.8797 29.8461 19.5269 30.7032 20.3856C31.5603 21.2443 32.2056 22.2907 32.588 23.4421C32.9704 24.5935 33.0795 25.8181 32.9065 27.0189L35.4728 29.59ZM26.2722 33.6408L28.8385 36.212C26.8874 36.9075 24.7789 37.0347 22.7583 36.5787C20.7377 36.1228 18.8881 35.1024 17.4247 33.6363C15.9614 32.1703 14.9444 30.3188 14.4922 28.2973C14.04 26.2759 14.1711 24.1676 14.8703 22.2178L17.4398 24.792C17.2667 25.9928 17.3758 27.2174 17.7582 28.3688C18.1406 29.5201 18.7859 30.5666 19.643 31.4253C20.5001 32.2839 21.5454 32.9312 22.696 33.3158C23.8467 33.7003 25.0711 33.8116 26.2722 33.6408V33.6408Z" fill="black"/>
<path d="M10.6492 17.9857C10.0862 18.4852 9.54513 18.9909 9.02902 19.5061C7.08861 21.4533 5.34873 23.5906 3.8356 25.8856L4.44414 26.7862C5.48963 28.2872 7.03464 30.2886 9.01718 32.2748C13.0416 36.3067 18.5382 39.9618 25.16 39.9679C27.3975 39.97 29.5042 39.5563 31.4736 38.8488L33.8776 41.2635C31.1263 42.4627 28.1584 43.0853 25.1571 43.0929C9.53215 43.0784 0.173105 25.8822 0.173105 25.8822C0.173105 25.8822 3.11247 20.5068 8.43561 15.7712L10.6461 17.9888L10.6492 17.9857ZM42.7984 45.7781L5.33322 8.24327L7.54778 6.03283L45.013 43.5676L42.7984 45.7781Z" fill="black"/>
</g>
<defs>
<clipPath id="clip0_3_394">
<rect width="50" height="50" fill="white" transform="translate(0.196289 0.882248) rotate(0.0531621)"/>
</clipPath>
</defs>
</svg>
