<svg width="52" height="51" viewBox="0 0 52 51" fill="none" xmlns="http://www.w3.org/2000/svg">
<path d="M9.77752 41.281C10.743 42.2497 11.8904 43.018 13.1538 43.5419C14.4172 44.0658 15.7716 44.3348 17.1393 44.3336C18.5072 44.3373 19.8625 44.0707 21.1271 43.5492C22.3918 43.0277 23.541 42.2615 24.5088 41.2946L30.4059 35.4064L27.4628 32.4578L21.5657 38.3461C20.3906 39.5138 18.8008 40.1685 17.1442 40.1669C15.4876 40.1654 13.899 39.5077 12.7261 38.3379C11.5574 37.1633 10.902 35.5733 10.9035 33.9164C10.9051 32.2594 11.5634 30.6707 12.7343 29.4983L18.6335 23.6121L15.6904 20.6635L9.79118 26.5497C7.83897 28.503 6.74118 31.1509 6.73862 33.9125C6.73605 36.6741 7.82893 39.324 9.77752 41.281V41.281ZM42.2022 23.634C44.1534 21.6801 45.2505 19.0325 45.2531 16.2712C45.2556 13.5099 44.1635 10.8602 42.2159 8.90273C40.2626 6.95051 37.6147 5.85272 34.8531 5.85016C32.0915 5.8476 29.4416 6.94047 27.4847 8.88906L21.5875 14.7773L24.5306 17.7259L30.4278 11.8376C31.6029 10.6699 33.1926 10.0152 34.8492 10.0168C36.5058 10.0183 38.0944 10.676 39.2673 11.8458C40.436 13.0204 41.0914 14.6104 41.0899 16.2673C41.0884 17.9243 40.43 19.513 39.2591 20.6854L33.3599 26.5716L36.303 29.5202L42.2022 23.634Z" fill="black"/>
<path d="M18.6205 35.3975L15.6753 32.4489L33.3729 14.7862L36.316 17.7368L18.6205 35.3975Z" fill="black"/>
</svg>
