<svg width="51" height="51" viewBox="0 0 51 51" fill="none" xmlns="http://www.w3.org/2000/svg">
<path d="M9.1485 41.7485L13.3152 41.7524L13.3345 20.9191C13.335 20.3665 13.555 19.8368 13.9461 19.4465C14.3371 19.0562 14.8672 18.8372 15.4198 18.8377L40.4198 18.8609L40.4236 14.6942C40.4241 14.1417 40.2051 13.6116 39.8148 13.2205C39.4245 12.8294 38.8948 12.6095 38.3422 12.6089L31.986 12.6031C31.4653 7.92757 27.5375 4.26559 22.725 4.26112C17.9125 4.25666 13.9778 7.91134 13.4485 12.5859L7.09223 12.58C6.5397 12.5794 6.00959 12.7984 5.61853 13.1888C5.22746 13.5791 5.00748 14.1088 5.00697 14.6614L4.9857 37.578C4.98468 38.6831 5.42268 39.7433 6.20336 40.5254C6.98403 41.3075 8.04343 41.7475 9.1485 41.7485ZM22.7211 8.42779C25.2357 8.43012 27.3403 10.2237 27.8214 12.5992L17.6131 12.5897C18.0986 10.2152 20.2065 8.42545 22.7211 8.42779Z" fill="black"/>
<path d="M44.5826 23.0314L19.5826 23.0082C19.03 23.0077 18.4999 23.2267 18.1089 23.617C17.7178 24.0074 17.4978 24.5371 17.4973 25.0896L17.4818 41.7563C17.4808 42.8613 17.9188 43.9216 18.6995 44.7037C19.4802 45.4858 20.5396 45.9258 21.6446 45.9268L42.478 45.9461C43.583 45.9472 44.6432 45.5092 45.4254 44.7285C46.2075 43.9478 46.6475 42.8884 46.6485 41.7833L46.664 25.1167C46.6645 24.5641 46.4455 24.034 46.0551 23.643C45.6648 23.2519 45.1351 23.0319 44.5826 23.0314ZM32.069 37.6031C26.3253 37.5978 21.6567 32.9206 21.662 27.1768L25.8287 27.1807C25.8255 30.6265 28.6271 33.4333 32.0729 33.4365C35.5187 33.4397 38.3255 30.6381 38.3287 27.1923L42.4954 27.1961C42.49 32.9399 37.8128 37.6085 32.069 37.6031Z" fill="black"/>
</svg>
