<svg width="51" height="51" viewBox="0 0 51 51" fill="none" xmlns="http://www.w3.org/2000/svg">
<g clip-path="url(#clip0_31_243)">
<path d="M29.0092 4.17553C28.5036 3.65897 27.9001 3.24843 27.2339 2.96794C26.5678 2.68744 25.8523 2.54262 25.1295 2.54195C24.4067 2.54128 23.691 2.68477 23.0243 2.96403C22.3576 3.24329 21.7533 3.65271 21.2467 4.16833L1.72207 24.0237C0.694993 25.0819 0.119932 26.4982 0.118564 27.973C0.117195 29.4477 0.689627 30.8651 1.71473 31.9252L15.625 46.1241C16.6188 47.0172 17.9079 47.511 19.244 47.5102L30.9393 47.5211C32.4128 47.5225 33.8133 46.93 34.8393 45.881L48.5069 31.9858C49.5382 30.9279 50.116 29.5093 50.1174 28.0318C50.1188 26.5544 49.5436 25.1347 48.5142 24.0749L29.0092 4.17553ZM28.4396 40.4703L26.4831 42.4451C26.4126 42.5221 26.3269 42.5837 26.2314 42.6258C26.1359 42.668 26.0326 42.6898 25.9282 42.6899L24.261 42.6883C24.0709 42.6847 23.8887 42.6117 23.7487 42.4832L21.7568 40.4626C21.6118 40.3099 21.531 40.1073 21.5312 39.8967C21.5314 39.6862 21.6125 39.4837 21.7579 39.3313L24.5496 36.5027C24.6208 36.4272 24.7067 36.3671 24.802 36.3261C24.8973 36.285 24.9999 36.2639 25.1037 36.264C25.2074 36.2641 25.3101 36.2854 25.4053 36.3266C25.5005 36.3678 25.5863 36.4281 25.6574 36.5037L28.4376 39.3375C28.5855 39.4887 28.6683 39.6918 28.6681 39.9034C28.6679 40.1149 28.5848 40.3179 28.4365 40.4688L28.4396 40.4703ZM28.4507 28.5719L20.6542 36.5006C20.5813 36.5748 20.4938 36.6332 20.3972 36.6721C20.3007 36.7109 20.1971 36.7295 20.0931 36.7267L18.4322 36.7251C18.241 36.7321 18.0545 36.6647 17.912 36.5371L15.928 34.5103C15.7829 34.3576 15.7021 34.155 15.7023 33.9445C15.7025 33.7339 15.7837 33.5314 15.929 33.379L24.5622 24.6058C24.6344 24.5321 24.7206 24.4736 24.8158 24.4337C24.9109 24.3938 25.0131 24.3733 25.1163 24.3734C25.2195 24.3734 25.3216 24.3941 25.4167 24.4342C25.5118 24.4743 25.5979 24.533 25.67 24.6068L28.4502 27.4485C28.598 27.5981 28.6808 27.8 28.6806 28.0104C28.6804 28.2208 28.5972 28.4225 28.4491 28.5719L28.4507 28.5719ZM28.4617 16.6828L14.8176 30.5452C14.7465 30.621 14.6605 30.6812 14.565 30.7219C14.4695 30.7627 14.3665 30.7833 14.2627 30.7822L12.5939 30.7806C12.4023 30.7819 12.217 30.7122 12.0738 30.5848L10.0897 28.5564C9.94519 28.4051 9.86462 28.2038 9.86481 27.9945C9.865 27.7852 9.94595 27.5841 10.0908 27.433L24.5732 12.7167C24.6454 12.6431 24.7317 12.5845 24.8268 12.5446C24.922 12.5047 25.0241 12.4842 25.1273 12.4843C25.2305 12.4844 25.3326 12.5051 25.4277 12.5452C25.5228 12.5853 25.6089 12.6439 25.681 12.7178L28.4612 15.5516C28.6092 15.7027 28.6919 15.9059 28.6917 16.1174C28.6915 16.329 28.6084 16.532 28.4601 16.6828L28.4617 16.6828Z" fill="black"/>
</g>
<defs>
<clipPath id="clip0_31_243">
<rect width="50" height="50" fill="white" transform="translate(0.139648 0.00656128) rotate(0.0531621)"/>
</clipPath>
</defs>
</svg>
