<svg width="51" height="51" viewBox="0 0 51 51" fill="none" xmlns="http://www.w3.org/2000/svg">
<path d="M18.1304 13.7667C18.1322 11.9249 18.8654 10.1592 20.169 8.85809C21.4725 7.55696 23.2396 6.82696 25.0813 6.82867C26.9231 6.83038 28.6888 7.56366 29.9899 8.8672C31.291 10.1707 32.021 11.9378 32.0193 13.7796L32.0157 17.6407L34.7935 17.6432L34.7971 13.7821C34.7983 12.5054 34.548 11.2409 34.0605 10.0609C33.573 8.8809 32.8579 7.80847 31.9559 6.90484C31.054 6.00121 29.9829 5.28408 28.8038 4.7944C27.6247 4.30472 26.3607 4.05208 25.0839 4.05089C23.8072 4.04971 22.5427 4.30001 21.3627 4.7875C20.1827 5.27499 19.1103 5.99013 18.2066 6.89208C17.303 7.79404 16.5859 8.86514 16.0962 10.0442C15.6065 11.2233 15.3539 12.4873 15.3527 13.7641L15.3491 17.6252L18.1269 17.6278L18.1304 13.7667Z" fill="black"/>
<path d="M34.7935 17.6432L34.7895 21.9488C34.7892 22.3172 34.6426 22.6703 34.3818 22.9305C34.1211 23.1907 33.7677 23.3367 33.3994 23.3364C33.031 23.3361 32.6779 23.1894 32.4177 22.9287C32.1574 22.668 32.0114 22.3146 32.0118 21.9462L32.0158 17.6407L18.1269 17.6278L18.1229 21.9333C18.1225 22.3017 17.9759 22.6548 17.7152 22.915C17.4545 23.1753 17.1011 23.3213 16.7327 23.3209C16.3644 23.3206 16.0112 23.1739 15.751 22.9132C15.4908 22.6525 15.3448 22.2991 15.3451 21.9308L15.3491 17.6252L5.62689 17.6162L5.60112 45.3939C5.60043 46.1307 5.89244 46.8375 6.41289 47.3589C6.93334 47.8803 7.63961 48.1736 8.37632 48.1743L41.7096 48.2052C42.4463 48.2059 43.1532 47.9139 43.6746 47.3935C44.196 46.873 44.4893 46.1667 44.49 45.43L44.5158 17.6523L34.7935 17.6432Z" fill="black"/>
</svg>
