<svg width="51" height="51" viewBox="0 0 51 51" fill="none" xmlns="http://www.w3.org/2000/svg">
<path opacity="0.05" d="M3.88527 26.1021C3.89665 13.8303 13.8541 3.89134 26.1259 3.90273V3.90273C38.3976 3.91411 48.3366 13.8716 48.3252 26.1433V26.1433C48.3139 38.4151 38.3564 48.3541 26.0846 48.3427V48.3427C13.8129 48.3313 3.87388 38.3739 3.88527 26.1021V26.1021Z" fill="#0E4749"/>
<path d="M22.88 31.7597L24.8791 32.7616L24.8852 26.1716C24.8843 25.9093 24.7804 25.6578 24.5958 25.4713L18.1219 18.8953L33.6819 18.9098L27.2058 25.4737C27.0209 25.6598 26.9165 25.9111 26.9152 26.1735L26.878 33.9034L28.8771 34.9053L28.8848 26.5853L35.471 19.9114C35.7345 19.6446 35.8852 19.2867 35.8919 18.9118L35.8929 17.9118C35.8931 17.6466 35.788 17.3921 35.6006 17.2044C35.4133 17.0167 35.159 16.9111 34.8938 16.9109L16.8938 16.8942C16.6286 16.8939 16.3741 16.9991 16.1864 17.1864C15.9987 17.3738 15.8931 17.628 15.8929 17.8932L15.8919 18.8932C15.898 19.2682 16.048 19.6264 16.311 19.8936L22.8848 26.5797L22.88 31.7597Z" fill="#0E4749"/>
</svg>
