<svg width="51" height="51" viewBox="0 0 51 51" fill="none" xmlns="http://www.w3.org/2000/svg">
<path d="M13.5101 38.7825C13.1195 38.7041 12.8071 38.6256 12.4166 38.469C12.0261 38.3124 11.7137 38.234 11.4013 38.0775C10.6985 37.7643 10.0739 37.3731 9.4493 36.9038C8.20009 36.0432 7.18556 34.8704 6.40561 33.4635C5.62559 32.1346 5.15829 30.5717 5.08155 29.0872C5.00415 28.3059 5.08292 27.6028 5.16177 26.8217C5.24026 26.4311 5.31868 26.1187 5.39716 25.7281C5.47565 25.3376 5.63219 25.0252 5.71068 24.6347L5.78779 25.7285C5.78743 26.1191 5.86526 26.4317 5.94302 26.8224C6.0205 27.5256 6.17609 28.2289 6.33176 28.854C6.64303 30.1824 7.11062 31.4329 7.81266 32.6054C8.5147 33.7779 9.29493 34.8724 10.3096 35.8889C10.7779 36.3581 11.3244 36.8274 11.8708 37.2966C12.105 37.5312 12.4172 37.7659 12.7295 38.0006L13.5101 38.7825ZM13.2731 41.5948C13.0386 41.7509 12.726 41.8287 12.4134 41.9065C12.1008 41.9844 11.8664 42.0623 11.5539 42.062C11.0069 42.1396 10.3819 42.2171 9.75694 42.1384C8.58514 42.0592 7.33543 41.7456 6.32031 41.1977C5.22707 40.6499 4.29037 39.7896 3.66631 38.7734C3.35424 38.3044 3.04225 37.7572 2.80838 37.2101C2.73048 36.9757 2.65264 36.6631 2.57481 36.3505C2.57502 36.1162 2.49712 35.8817 2.49741 35.5692C2.73156 35.8038 2.8876 36.0383 3.0437 36.1947C3.27786 36.4293 3.43389 36.6638 3.59 36.8202C3.98026 37.2112 4.2924 37.6021 4.68273 37.915C5.46333 38.6188 6.244 39.2446 7.18106 39.7142C8.04 40.1837 9.05526 40.5753 9.99247 40.8887C10.4611 41.0453 11.0079 41.124 11.5546 41.2807C11.7889 41.3591 12.1014 41.3594 12.3357 41.4377C12.7263 41.5162 12.9606 41.5164 13.2731 41.5948M30.9645 3.64247C31.3551 3.72096 31.6674 3.8775 32.0579 4.03411C32.4484 4.19073 32.7608 4.34727 33.0731 4.50381C33.7759 4.89508 34.4005 5.28629 35.0251 5.75562C36.2742 6.69428 37.2887 7.94522 37.9905 9.35212C38.6923 10.759 39.0815 12.3219 39.0801 13.8063C39.0794 14.5875 39.0006 15.2906 38.8436 16.0717C38.7652 16.4622 38.6867 16.7746 38.5301 17.1651C38.3735 17.5556 38.2951 17.868 38.1386 18.1804L38.0614 17.0866C38.0618 16.6959 38.0621 16.3834 37.9843 15.9927L37.7519 13.8832C37.5188 12.5548 37.0513 11.2263 36.4274 9.97567C35.8036 8.72509 35.0233 7.63062 34.0868 6.61412C33.6185 6.06681 33.0721 5.59756 32.6039 5.05025C32.3697 4.81565 32.0574 4.58099 31.7451 4.34632L30.9645 3.64247M37.7617 3.33628C38.0741 3.4147 38.3084 3.49304 38.5427 3.64951C38.777 3.72785 39.0893 3.88439 39.3235 4.04086C39.792 4.35379 40.2605 4.66673 40.7289 5.05779C41.5875 5.83983 42.2898 6.77798 42.6794 7.8721C43.1471 8.96628 43.3023 10.1383 43.1449 11.31C43.0663 11.8568 42.9095 12.4036 42.7528 12.9503C42.6744 13.1846 42.5179 13.4969 42.4396 13.7313C42.2831 13.9655 42.2048 14.1998 41.9702 14.4339L41.9716 12.8714C41.9721 12.3246 41.8944 11.8557 41.8949 11.387C41.7396 10.3712 41.5842 9.43358 41.1943 8.57384C40.8046 7.63598 40.3366 6.8543 39.7905 5.99441C39.4784 5.6035 39.1663 5.13446 38.8541 4.74355C38.6981 4.50903 38.542 4.35263 38.3079 4.11804C38.152 3.72727 37.9178 3.49268 37.7617 3.33628" fill="#42ADE2"/>
<path d="M8.76657 14.95C7.20341 15.6517 6.6548 17.5262 7.35647 19.0893L17.1812 39.6453L22.6523 37.0723L12.8277 16.4382C12.126 14.875 10.3298 14.1702 8.76657 14.95M34.6108 31.3021L40.3946 28.5731L29.1663 5.12519C28.3865 3.56197 26.5122 2.8571 24.8708 3.63683C23.3076 4.41663 22.6027 6.29098 23.3825 7.93233L34.6108 31.3021Z" fill="#FFDD67"/>
<path d="M24.949 3.55879C24.7927 3.63677 24.6364 3.71475 24.48 3.87085C25.9647 3.48161 27.5266 4.18618 28.2284 5.59308L39.4566 29.041L40.4727 28.5732L29.2444 5.12528C28.4647 3.48393 26.5904 2.77906 24.949 3.55879" fill="#EBA352"/>
<path d="M22.6523 36.9942L28.6707 34.1091L17.2085 10.1922C16.4287 8.55088 14.3982 7.76774 12.7569 8.54747C11.1155 9.3272 10.4105 11.3578 11.1902 12.9991L22.6523 36.9942Z" fill="#FFDD67"/>
<path d="M12.7568 8.62559C12.6005 8.70357 12.4441 8.78156 12.2877 8.93766C13.7725 8.54841 15.4906 9.25313 16.1923 10.7382L23.2879 25.6666L25.0057 26.6838L17.2084 10.2704C16.4287 8.55088 14.4763 7.84594 12.7568 8.62559" fill="#EBA352"/>
<path d="M27.7349 32.2333L33.7532 29.3482L22.291 5.43133C21.5113 3.78998 19.4808 3.00684 17.8393 3.86469C16.198 4.64442 15.493 6.67502 16.2727 8.31637L27.7349 32.2333Z" fill="#FFDD67"/>
<path d="M17.8394 3.78656C17.6831 3.86454 17.5267 4.02065 17.3704 4.09863C18.8551 3.70938 20.5732 4.4141 21.275 5.89912L29.3062 22.7816L31.024 23.7988L22.291 5.43132C21.5114 3.71184 19.4808 3.00683 17.8394 3.78656M8.76656 14.95C8.61024 15.028 8.45392 15.106 8.29752 15.2621C9.70413 14.8728 11.1879 15.5773 11.8116 16.9841L17.6595 29.2552L19.3773 30.2724L12.8276 16.5163C12.126 14.875 10.3298 14.1702 8.76656 14.95Z" fill="#EBA352"/>
<path d="M48.4562 12.6431C46.3484 11.0005 42.9092 12.7942 41.1852 18.4176C40.0097 22.3228 39.8524 23.4945 37.3513 24.6641L35.9477 21.7721C35.9477 21.7721 13.7503 32.4547 14.6081 34.1742C14.6081 34.1742 17.2567 42.4579 21.7844 46.2902C28.4977 52.0777 44.2066 45.9204 44.9236 30.9992C45.3222 22.3277 50.7202 14.4421 48.4562 12.6431Z" fill="#FFDD67"/>
<path d="M48.4562 12.6431C48.0659 12.3302 47.5973 12.1735 47.1286 12.095C47.2066 12.1732 47.3629 12.1733 47.4409 12.2515C49.783 14.0506 47.3573 18.1889 46.0257 21.9377C44.9292 24.9054 43.9889 27.9515 44.1424 30.9203C44.7553 43.8897 31.7027 50.0494 23.8924 47.6984C31.5457 50.9087 45.7701 44.8281 45.1576 31.3119C45.0041 28.343 45.8662 25.4532 47.041 22.3293C48.2944 18.5804 50.7202 14.4421 48.4562 12.6431" fill="#EBA352"/>
<path d="M38.0547 24.3522C33.2105 24.8946 26.0946 31.8411 31.0876 39.4238C27.4228 31.7642 33.4432 26.6135 37.273 24.8202C37.6639 24.5081 38.0547 24.3522 38.0547 24.3522" fill="#EBA352"/>
</svg>
