<svg width="51" height="51" viewBox="0 0 51 51" fill="none" xmlns="http://www.w3.org/2000/svg">
<g clip-path="url(#clip0_90_2016)">
<path d="M49.2257 46.1792L45.8177 35.921L42.0677 35.9175L44.1409 45.9194L7.47596 45.8854L9.56774 35.8874L5.81774 35.8839L2.38823 46.1357C1.5183 48.7449 3.05382 50.8813 5.80382 50.8839L45.8038 50.921C48.5538 50.9235 50.0933 48.79 49.2257 46.1792ZM38.3386 13.414C38.3417 10.0988 37.0277 6.91819 34.6856 4.57181C32.3436 2.22543 29.1654 0.905524 25.8502 0.902448C22.535 0.899372 19.3544 2.21338 17.008 4.55541C14.6616 6.89744 13.3417 10.0756 13.3386 13.3908C13.3275 25.3283 25.8154 38.4024 25.8154 38.4024C25.8154 38.4024 38.3275 25.3515 38.3386 13.414ZM19.0885 13.5462C19.0893 12.6599 19.2647 11.7824 19.6047 10.9639C19.9447 10.1454 20.4427 9.40194 21.0701 8.77593C21.6975 8.14992 22.4421 7.65364 23.2613 7.31545C24.0806 6.97727 24.9584 6.8038 25.8447 6.80495C27.6346 6.80661 29.3505 7.51923 30.615 8.78604C31.8794 10.0528 32.5889 11.7701 32.5872 13.56C32.5856 15.3498 31.8729 17.0657 30.6061 18.3302C29.3393 19.5947 27.6221 20.3041 25.8322 20.3024C24.042 20.3008 22.3258 19.588 21.0611 18.321C19.7964 17.0539 19.0868 15.3364 19.0885 13.5462V13.5462Z" fill="black"/>
</g>
<defs>
<clipPath id="clip0_90_2016">
<rect width="50" height="50" fill="white" transform="translate(0.85022 0.879272) rotate(0.0531621)"/>
</clipPath>
</defs>
</svg>
