<svg width="15" height="81" viewBox="0 0 15 81" fill="none" xmlns="http://www.w3.org/2000/svg">
<g clip-path="url(#clip0_63_1636)">
<path d="M12.7208 63.3628C12.4095 63.3642 12.1021 63.254 11.8211 63.0404C11.5401 62.8267 11.2927 62.5149 11.0969 62.128L1.05299 42.1187C0.747125 41.5219 0.580306 40.7736 0.581023 40.0016C0.581739 39.2295 0.749946 38.4815 1.05692 37.8853L11.4921 17.895C11.8464 17.2146 12.3549 16.787 12.9059 16.7062C13.4569 16.6255 14.0051 16.8982 14.43 17.4644C14.855 18.0306 15.1218 18.8439 15.1717 19.7253C15.2217 20.6068 15.0508 21.4843 14.6965 22.1646L5.36744 40.0227L14.3509 57.8977C14.6052 58.3872 14.7664 58.9831 14.8156 59.615C14.8648 60.2469 14.7998 60.8882 14.6283 61.4632C14.4568 62.0381 14.186 62.5226 13.848 62.8592C13.5099 63.1959 13.1188 63.3706 12.7208 63.3628Z" fill="black"/>
</g>
<defs>
<clipPath id="clip0_63_1636">
<rect width="14" height="80" fill="white" transform="translate(0.967056 0.0185547) rotate(0.0531621)"/>
</clipPath>
</defs>
</svg>
