<svg width="51" height="41" viewBox="0 0 51 41" fill="none" xmlns="http://www.w3.org/2000/svg">
<g clip-path="url(#clip0_90_2106)">
<path d="M49.569 27.5544L48.319 27.5533L48.3269 19.108C48.3278 18.1158 47.9302 17.1623 47.2278 16.4585L39.4303 8.64658C38.7279 7.94281 37.7751 7.54349 36.7829 7.54257L33.3376 7.53937L33.3411 3.78937C33.343 1.71906 31.6649 0.0378131 29.5946 0.0358921L4.59457 0.0126958C2.52426 0.0107748 0.843015 1.6889 0.841095 3.75921L0.817898 28.7592C0.815977 30.8295 2.49411 32.5108 4.56442 32.5127L5.81442 32.5138C5.81057 36.6545 9.16683 40.017 13.3075 40.0208C17.4481 40.0246 20.8106 36.6684 20.8144 32.5278L30.8144 32.537C30.8106 36.6777 34.1668 40.0402 38.3074 40.044C42.4481 40.0478 45.8106 36.6916 45.8144 32.551L49.5644 32.5544C50.2519 32.5551 50.8149 31.9931 50.8156 31.3056L50.8179 28.8056C50.8185 28.1181 50.2565 27.5551 49.569 27.5544ZM13.3109 36.2708C11.2406 36.2689 9.56249 34.5876 9.56442 32.5173C9.56634 30.447 11.2476 28.7689 13.3179 28.7708C15.3882 28.7727 17.0663 30.454 17.0644 32.5243C17.0625 34.5946 15.3812 36.2727 13.3109 36.2708ZM38.3109 36.294C36.2406 36.2921 34.5625 34.6108 34.5644 32.5405C34.5663 30.4702 36.2476 28.7921 38.3179 28.794C40.3882 28.7959 42.0663 30.4772 42.0644 32.5475C42.0625 34.6178 40.3812 36.2959 38.3109 36.294ZM44.576 20.0498L33.326 20.0394L33.3341 11.2894L36.7794 11.2926L44.5769 19.1045L44.576 20.0498Z" fill="black"/>
</g>
<defs>
<clipPath id="clip0_90_2106">
<rect width="50" height="40" fill="white" transform="translate(0.844574 0.00921631) rotate(0.0531621)"/>
</clipPath>
</defs>
</svg>
