<svg width="51" height="51" viewBox="0 0 51 51" fill="none" xmlns="http://www.w3.org/2000/svg">
<path d="M45.6003 20.9685L43.9222 20.967L43.9222 20.8805L25.1722 20.8631L25.1645 29.1964L36.9385 29.2074C35.2163 34.0568 30.5974 37.5348 25.1568 37.5298C18.2537 37.5234 12.662 31.9213 12.6684 25.0182C12.6748 18.1151 18.2769 12.5234 25.18 12.5298C28.3664 12.5327 31.2643 13.7375 33.4697 15.7031L39.3679 9.81586C35.6503 6.3447 30.6752 4.20155 25.1877 4.19645C13.6825 4.18578 4.34573 13.5052 4.33506 25.0104C4.32438 36.5157 13.6438 45.8524 25.149 45.8631C36.6543 45.8738 45.991 36.5543 46.0017 25.0491C46.003 23.6522 45.8605 22.2886 45.6003 20.9685Z" fill="#FFC107"/>
<path d="M6.74614 15.3158L13.5863 20.3419C15.4426 15.7582 19.931 12.5249 25.18 12.5298C28.3664 12.5327 31.2643 13.7375 33.4697 15.7031L39.3679 9.81586C35.6503 6.3447 30.6752 4.20154 25.1877 4.19645C17.1856 4.18903 10.2419 8.7003 6.74614 15.3158Z" fill="#FF3D00"/>
<path d="M25.1491 45.8631C30.5303 45.8681 35.4218 43.8133 39.1218 40.4677L32.6789 35.0055C30.5155 36.6477 27.8729 37.5344 25.1568 37.5298C19.738 37.5247 15.1402 34.0653 13.4113 29.2418L6.61274 34.4699C10.0544 41.2199 17.0522 45.8556 25.1491 45.8631Z" fill="#4CAF50"/>
<path d="M45.6003 20.9685L43.9222 20.967L43.9222 20.8805L25.1722 20.8631L25.1645 29.1964L36.9385 29.2074C36.1147 31.5154 34.6327 33.5315 32.6758 35.0065L32.6789 35.0045L39.1218 40.4667C38.6651 40.8808 45.992 35.4658 46.0017 25.0491C46.003 23.6522 45.8605 22.2886 45.6003 20.9685Z" fill="#1976D2"/>
</svg>
