<svg width="51" height="51" viewBox="0 0 51 51" fill="none" xmlns="http://www.w3.org/2000/svg">
<path d="M25.9594 4.25432C37.4678 4.265 46.7883 13.6028 46.7776 25.1111C46.7669 36.6174 37.4291 45.9358 25.9208 45.9251C14.4124 45.9165 5.09194 36.5787 5.10261 25.0725C5.11329 13.5641 14.4511 4.24364 25.9594 4.25432ZM25.9565 7.37932C23.6145 7.35174 21.2902 7.78895 19.1183 8.66562C16.9464 9.5423 14.9698 10.841 13.3032 12.4867C11.6365 14.1323 10.3128 16.0922 9.40857 18.2528C8.50438 20.4134 8.03769 22.732 8.03552 25.0742C8.03335 27.4164 8.49573 29.7357 9.39591 31.898C10.2961 34.0604 11.6162 36.0227 13.2798 37.6714C14.9434 39.3201 16.9175 40.6225 19.0878 41.5032C21.2581 42.3839 23.5816 42.8254 25.9237 42.8022C30.5878 42.756 35.0455 40.8718 38.3288 37.5588C41.6122 34.2458 43.4562 29.7714 43.4605 25.107C43.4648 20.4427 41.6291 15.9648 38.3519 12.6458C35.0747 9.32666 30.6206 7.43423 25.9565 7.37932V7.37932ZM18.5639 30.8829C19.4397 31.9999 20.5582 32.903 21.8346 33.5239C23.111 34.1449 24.512 34.4673 25.9314 34.4668C27.3493 34.4699 28.7493 34.1506 30.0257 33.5332C31.3021 32.9158 32.4215 32.0163 33.2993 30.9028C33.4267 30.7419 33.5845 30.6077 33.7637 30.5078C33.943 30.4079 34.1401 30.3443 34.3439 30.3206C34.5478 30.2969 34.7543 30.3135 34.9517 30.3697C35.149 30.4258 35.3334 30.5202 35.4943 30.6476C35.6552 30.7749 35.7894 30.9327 35.8893 31.112C35.9892 31.2912 36.0529 31.4884 36.0766 31.6922C36.1003 31.896 36.0836 32.1025 36.0275 32.2999C35.9714 32.4973 35.877 32.6817 35.7496 32.8426C34.5789 34.326 33.0867 35.5243 31.3854 36.347C29.6841 37.1697 27.8182 37.5953 25.9285 37.5918C24.0363 37.5916 22.169 37.1612 20.4676 36.3331C18.7663 35.505 17.2755 34.3009 16.1079 32.8119C15.9756 32.6512 15.8768 32.4657 15.8172 32.2662C15.7576 32.0668 15.7384 31.8575 15.7608 31.6506C15.7832 31.4436 15.8468 31.2433 15.9477 31.0612C16.0486 30.8792 16.1849 30.7191 16.3485 30.5905C16.5121 30.4618 16.6998 30.3672 16.9005 30.3121C17.1012 30.2569 17.3109 30.2425 17.5173 30.2695C17.7236 30.2966 17.9225 30.3646 18.1023 30.4695C18.282 30.5745 18.4389 30.7143 18.5639 30.8808L18.5639 30.8829ZM19.6964 18.3152C20.0444 18.3057 20.3909 18.366 20.7152 18.4927C21.0395 18.6194 21.3351 18.8098 21.5846 19.0528C21.834 19.2957 22.0322 19.5862 22.1674 19.907C22.3026 20.2279 22.3721 20.5726 22.3718 20.9208C22.3715 21.269 22.3013 21.6136 22.1655 21.9342C22.0297 22.2548 21.831 22.5449 21.5811 22.7873C21.3312 23.0298 21.0352 23.2197 20.7107 23.3458C20.3861 23.4719 20.0396 23.5316 19.6916 23.5214C19.0139 23.5016 18.3707 23.2184 17.8987 22.7318C17.4266 22.2453 17.1628 21.5939 17.1635 20.916C17.1641 20.238 17.429 19.5871 17.902 19.1014C18.375 18.6158 19.0187 18.3337 19.6964 18.3152ZM32.1964 18.3268C32.5444 18.3173 32.8909 18.3776 33.2152 18.5043C33.5395 18.631 33.8351 18.8214 34.0845 19.0644C34.334 19.3073 34.5322 19.5978 34.6674 19.9186C34.8026 20.2395 34.8721 20.5842 34.8718 20.9324C34.8715 21.2806 34.8013 21.6252 34.6655 21.9458C34.5297 22.2664 34.331 22.5565 34.0811 22.7989C33.8312 23.0414 33.5352 23.2313 33.2107 23.3574C32.8861 23.4835 32.5396 23.5432 32.1916 23.533C31.5139 23.5132 30.8707 23.23 30.3987 22.7434C29.9266 22.2569 29.6628 21.6055 29.6635 20.9276C29.6641 20.2496 29.929 19.5987 30.402 19.113C30.875 18.6274 31.5187 18.3453 32.1964 18.3268V18.3268Z" fill="black"/>
</svg>
