<svg width="51" height="51" viewBox="0 0 51 51" fill="none" xmlns="http://www.w3.org/2000/svg">
<path d="M11.0493 7.82836C9.18445 7.82663 7.39534 8.56576 6.0755 9.88315C4.75566 11.2005 4.01321 12.9883 4.01148 14.8531L4.00931 17.1968L47.7593 17.2374L47.7615 14.8937C47.7632 13.0289 47.0241 11.2398 45.7067 9.91993C44.3893 8.60009 42.6015 7.85764 40.7367 7.85591L11.0493 7.82836ZM3.99263 35.1656L4.00641 20.3218L47.7564 20.3624L47.7501 27.1484C45.5774 24.4475 42.4837 22.6442 39.0628 22.0847C35.6419 21.5253 32.1349 22.2489 29.2149 24.1169C26.295 25.9848 24.1678 28.8654 23.2417 32.2057C22.3155 35.5461 22.6558 39.1107 24.197 42.2156L11.0174 42.2033C9.15255 42.2016 7.36482 41.4592 6.04743 40.1393C4.73003 38.8195 3.9909 37.0304 3.99263 35.1656V35.1656ZM36.7935 47.696C33.6855 47.6931 30.706 46.4557 28.5103 44.256C26.3147 42.0563 25.0828 39.0744 25.0857 35.9664C25.0885 32.8584 26.326 29.8788 28.5257 27.6832C30.7254 25.4875 33.7073 24.2556 36.8153 24.2585C39.9233 24.2614 42.9028 25.4988 45.0985 27.6986C47.2941 29.8983 48.526 32.8801 48.5231 35.9881C48.5203 39.0961 47.2828 42.0757 45.0831 44.2714C42.8834 46.467 39.9015 47.6989 36.7935 47.696ZM36.421 28.1644C36.1102 28.1641 35.812 28.2873 35.5921 28.5069C35.3721 28.7264 35.2483 29.0244 35.2481 29.3352L35.2415 36.3664C35.2409 37.0133 35.7654 37.5388 36.4123 37.5394L41.8811 37.5445C42.1919 37.5448 42.4901 37.4216 42.71 37.202C42.93 36.9825 43.0537 36.6845 43.054 36.3737C43.0543 36.0629 42.9311 35.7647 42.7116 35.5447C42.492 35.3248 42.194 35.201 41.8832 35.2007L37.5864 35.1967L37.5918 29.3374C37.5921 29.0266 37.4689 28.7284 37.2493 28.5084C37.0298 28.2884 36.7318 28.1647 36.421 28.1644Z" fill="black"/>
</svg>
