<svg width="52" height="51" viewBox="0 0 52 51" fill="none" xmlns="http://www.w3.org/2000/svg">
<path d="M32.2446 33.3651L40.5779 33.3728L40.574 37.5395L32.2407 37.5318L32.2446 33.3651ZM32.26 16.6985L46.8434 16.712L46.8395 20.8787L32.2562 20.8651L32.26 16.6985ZM32.2523 25.0318L44.7523 25.0434L44.7484 29.21L32.2484 29.1984L32.2523 25.0318ZM7.24072 37.5086C7.23859 39.8002 9.11185 41.677 11.4035 41.6791L23.9035 41.6907C26.1952 41.6928 28.0719 39.8196 28.074 37.5279L28.0934 16.6946L7.26005 16.6753L7.24072 37.5086ZM30.1825 10.4465L23.9325 10.4407L21.8511 8.35546L13.5178 8.34773L11.4325 10.4291L5.18252 10.4233L5.17865 14.59L30.1786 14.6132L30.1825 10.4465Z" fill="black"/>
</svg>
