<svg width="51" height="51" viewBox="0 0 51 51" fill="none" xmlns="http://www.w3.org/2000/svg">
<g clip-path="url(#clip0_3_471)">
<path d="M50.1164 25.1151C50.1292 11.3081 38.9466 0.104733 25.1396 0.0919219C11.3326 0.079111 0.129217 11.2615 0.116406 25.0687C0.104828 37.5468 9.23742 47.8981 21.1872 49.7846L21.2034 32.3148L14.8558 32.309L14.8625 25.0824L21.2101 25.0883L21.2153 19.5805C21.2211 13.3149 24.9567 9.85738 30.6671 9.86268C33.4024 9.86522 36.2629 10.3562 36.2629 10.3562L36.2572 16.5085L33.1048 16.5056C29.999 16.5027 29.0288 18.4289 29.027 20.4061L29.0226 25.0955L35.9562 25.102L34.8411 32.3275L29.0159 32.3221L28.9997 49.7918C40.953 47.9275 50.1048 37.5934 50.1164 25.1151Z" fill="#1877F2"/>
<path d="M34.8411 32.3275L35.9562 25.102L29.0226 25.0955L29.027 20.4061C29.0288 18.4287 29.9992 16.5027 33.1048 16.5056L36.2572 16.5085L36.2629 10.3561C36.2629 10.3561 33.4024 9.86521 30.6671 9.86267C24.9567 9.85738 21.2211 13.3148 21.2153 19.5805L21.2102 25.0883L14.8625 25.0824L14.8558 32.309L21.2034 32.3148L21.1872 49.7846C22.4793 49.9883 23.7852 50.091 25.0932 50.0919C26.4012 50.0935 27.7073 49.9932 28.9997 49.7918L29.0159 32.3221L34.8411 32.3275Z" fill="white"/>
</g>
<defs>
<clipPath id="clip0_3_471">
<rect width="50" height="50" fill="white" transform="translate(0.139603 0.0687256) rotate(0.0531621)"/>
</clipPath>
</defs>
</svg>
