<svg width="51" height="51" viewBox="0 0 51 51" fill="none" xmlns="http://www.w3.org/2000/svg">
<path d="M5.26548 29.3442C4.89387 27.0954 4.896 24.8006 5.27178 22.5525C7.56756 22.6088 9.63108 21.5107 10.435 19.576C11.2388 17.6393 10.5597 15.4012 8.89863 13.8184C10.2262 11.9639 11.851 10.3415 13.7073 9.01657C15.289 10.6805 17.5259 11.3639 19.4642 10.5636C21.4024 9.7633 22.5022 7.69973 22.4481 5.40593C24.6983 5.03386 26.9945 5.03599 29.2439 5.41224C29.1856 7.70802 30.2836 9.77154 32.2183 10.5754C34.1551 11.3793 36.3932 10.7001 37.976 9.03909C39.8304 10.3667 41.4528 11.9914 42.7778 13.8477C41.1138 15.4295 40.4305 17.6664 41.2308 19.6046C42.0311 21.5429 44.0946 22.6427 46.3884 22.5886C46.7605 24.8387 46.7584 27.1349 46.3821 29.3844C44.0863 29.326 42.0228 30.4241 41.2189 32.3588C40.4151 34.2955 41.0942 36.5337 42.7553 38.1165C41.4277 39.9709 39.803 41.5933 37.9466 42.9182C36.3649 41.2543 34.128 40.571 32.1897 41.3712C30.2515 42.1715 29.1517 44.2351 29.2058 46.5289C26.9556 46.901 24.6594 46.8988 22.41 46.5226C22.4683 44.2268 21.3703 42.1633 19.4356 41.3594C17.4988 40.5555 15.2607 41.2347 13.6779 42.8957C11.8235 41.5681 10.2011 39.9434 8.87611 38.0871C10.5401 36.5053 11.2234 34.2684 10.4231 32.3302C9.62284 30.392 7.55927 29.2921 5.26547 29.3462L5.26548 29.3442ZM25.8212 32.2174C27.4788 32.2189 29.0691 31.5619 30.2423 30.3909C31.4155 29.2199 32.0754 27.6308 32.0769 25.9732C32.0785 24.3156 31.4215 22.7253 30.2505 21.5521C29.0795 20.3789 27.4904 19.7189 25.8327 19.7174C24.1751 19.7159 22.5848 20.3729 21.4116 21.5439C20.2384 22.7149 19.5785 24.304 19.577 25.9616C19.5754 27.6192 20.2324 29.2095 21.4034 30.3827C22.5744 31.5559 24.1635 32.2159 25.8212 32.2174V32.2174Z" fill="black"/>
</svg>
