<svg width="70" height="70" viewBox="0 0 70 70" fill="none" xmlns="http://www.w3.org/2000/svg">
<g clip-path="url(#clip0_63_1637)">
<path d="M47.212 21.4561L14.6594 23.3797C13.376 23.4579 12.148 23.93 11.1428 24.7316C10.1375 25.5332 9.40397 26.6254 9.04213 27.8592C8.68028 29.093 8.70776 30.4083 9.12081 31.6259C9.53386 32.8435 10.3124 33.9041 11.3502 34.6631L21.2674 41.8609C21.5008 42.0387 21.6963 42.2611 21.8428 42.5152C21.9892 42.7694 22.0835 43.0502 22.1202 43.3412L23.3725 55.531C23.4805 56.5669 23.8457 57.5594 24.4348 58.4182C25.0239 59.2771 25.8183 59.9751 26.7458 60.4489C27.6733 60.9227 28.7045 61.1571 29.7456 61.131C30.7868 61.1049 31.8049 60.819 32.7075 60.2993C33.5479 59.8039 34.2668 59.1268 34.8117 58.3177L52.8044 31.1215C53.441 30.1541 53.7963 29.0288 53.8307 27.8712C53.8651 26.7136 53.5771 25.5692 52.999 24.5657C52.4209 23.5622 51.5753 22.7391 50.5567 22.1882C49.538 21.6372 48.3863 21.3802 47.23 21.4457L47.212 21.4561ZM49.3181 28.8262L31.3255 56.0224C31.0854 56.3729 30.7439 56.6417 30.3468 56.7926C29.9496 56.9436 29.5158 56.9695 29.1036 56.8669C28.6913 56.7643 28.3202 56.5381 28.0401 56.2187C27.76 55.8992 27.5843 55.5018 27.5365 55.0796L26.2661 42.9002C26.2474 42.7386 26.2192 42.5782 26.1817 42.4199L38.6194 35.2543C39.0982 34.9785 39.4478 34.5238 39.5913 33.9902C39.7348 33.4566 39.6605 32.8879 39.3846 32.4091C39.1088 31.9304 38.6541 31.5808 38.1205 31.4373C37.587 31.2938 37.0182 31.3681 36.5395 31.6439L24.1017 38.8095C23.9836 38.6976 23.859 38.5928 23.7285 38.4955L13.8294 31.2873C13.4881 31.0342 13.2325 30.6828 13.0966 30.2802C12.9607 29.8777 12.9512 29.4432 13.0693 29.0351C13.1873 28.627 13.4273 28.2647 13.7571 27.9968C14.0869 27.729 14.4907 27.5684 14.9144 27.5365L47.4669 25.613C47.8499 25.5941 48.2306 25.6813 48.5672 25.8649C48.9038 26.0486 49.1832 26.3215 49.3746 26.6538C49.566 26.986 49.662 27.3646 49.6521 27.7479C49.6421 28.1312 49.5265 28.5043 49.3181 28.8262V28.8262Z" fill="black"/>
</g>
<defs>
<clipPath id="clip0_63_1637">
<rect width="50" height="50" fill="white" transform="translate(0.801758 25.7852) rotate(-29.9468)"/>
</clipPath>
</defs>
</svg>
